<?xml version="1.0" encoding="UTF-8"?>
<svg id="Capa_2" data-name="Capa 2" xmlns="http://www.w3.org/2000/svg" viewBox="0 0 938.59 518.38">
  <defs>
    <style>
      .cls-1 {
        fill: #225266;
      }

      .cls-2 {
        fill: #cbe7fe;
      }
    </style>
  </defs>
  <g id="Capa_1-2" data-name="Capa 1">
    <g>
      <path class="cls-1" d="M118.75,263.31l-50.15,157.14,136.21,97.93,671.58-35.48-65.49-195.39,127.7-6.75-.17-80.1-42.57-30.61-1.23-72.12L758.46,0l-84.49,4.46c.03,8.92.06,17.84.1,26.75-11.56-8.31-23.12-16.62-34.68-24.93l-92.75,4.9c-4.85,15.19-9.7,30.38-14.55,45.56-5.49-4.02-13.4-9.75-23.01-16.55-12.81-9.06-19.3-13.64-23.7-15.97-3.83-2.02-18.76-9.56-39.43-10.66-5.1-.27-26.02-.99-49.34,10.43-23.94,11.72-36.95,29.63-42.3,38.07-11.6-8.96-21.52-15.86-28.83-20.74-9.01-6.02-12.64-8.01-16.34-9.75-11.59-5.45-21.51-7.26-25.78-7.91-2.36-.36-11.08-1.58-22.67-.58-8.67.75-22.89,3.08-39.16,11.2l-7.7-5.52-92.15,4.87-4.7,17.39-22.18-15.97L0,40.07l60.95,181.93,57.8,41.3Z"/>
      <g>
        <path class="cls-2" d="M21.12,54.44l62.04-3.28,25.52,93.52,25.11-96.19,58.51-3.09-50.09,156.83-70.34,3.72L21.12,54.44Z"/>
        <path class="cls-2" d="M182.3,123.12c-.02-11.1,2.1-21.64,6.37-31.62,4.26-9.98,10.13-18.82,17.58-26.52,7.46-7.71,16.16-13.92,26.11-18.65,9.95-4.72,20.6-7.38,31.94-7.98,11.34-.6,22,.94,31.97,4.61,9.97,3.67,18.66,8.97,26.08,15.89,7.41,6.92,13.28,15.14,17.59,24.67,4.31,9.52,6.48,19.84,6.5,30.94.02,10.97-2.1,21.44-6.36,31.42-4.27,9.98-10.1,18.82-17.48,26.52-7.39,7.7-16.05,13.92-26,18.64-9.95,4.72-20.6,7.39-31.94,7.98-11.34.6-22-.94-31.97-4.61s-18.7-8.97-26.18-15.88c-7.48-6.92-13.38-15.14-17.69-24.66-4.31-9.52-6.48-19.77-6.5-30.74ZM233.55,120.41c0,4.2.81,8.08,2.41,11.65,1.6,3.57,3.82,6.64,6.66,9.2,2.84,2.56,6.13,4.52,9.87,5.88,3.74,1.36,7.75,1.93,12.04,1.7,4.29-.23,8.3-1.22,12.03-2.97,3.74-1.75,6.98-4.06,9.74-6.91,2.76-2.85,4.93-6.15,6.52-9.89,1.58-3.74,2.37-7.71,2.36-11.91,0-4.2-.81-8.08-2.41-11.65-1.6-3.57-3.79-6.67-6.56-9.3-2.77-2.63-6.03-4.62-9.77-5.98-3.74-1.36-7.75-1.93-12.04-1.7-4.29.23-8.3,1.22-12.03,2.97-3.73,1.76-7.01,4.1-9.84,7.02-2.83,2.93-5.04,6.26-6.62,10-1.58,3.74-2.37,7.71-2.36,11.91Z"/>
        <path class="cls-2" d="M517.24,122.08c-1.92,9.31-5.36,17.96-10.32,25.94-4.96,7.98-10.97,15-18.01,21.06-7.04,6.06-14.99,10.92-23.83,14.57-8.85,3.65-18.18,5.73-28,6.25-11.34.6-22-.94-31.97-4.61-9.97-3.67-18.7-8.97-26.18-15.88-7.48-6.92-13.38-15.14-17.69-24.66-4.31-9.52-6.48-19.77-6.5-30.74-.02-11.1,2.1-21.64,6.37-31.62,4.26-9.98,10.13-18.82,17.58-26.52,7.46-7.71,16.16-13.92,26.11-18.65,9.95-4.72,20.6-7.39,31.94-7.98,9.82-.52,19.16.58,28.02,3.29,8.86,2.72,16.82,6.73,23.89,12.04,7.07,5.31,13.1,11.73,18.1,19.26,4.99,7.53,8.47,15.77,10.43,24.74l-54.78,2.89c-2.78-3.92-6.38-6.98-10.81-9.18-4.43-2.2-9.35-3.16-14.74-2.88-4.29.23-8.3,1.22-12.03,2.97-3.73,1.76-7.01,4.1-9.84,7.02-2.83,2.93-5.04,6.26-6.62,10-1.58,3.74-2.37,7.71-2.36,11.91,0,4.2.81,8.08,2.41,11.65,1.6,3.57,3.82,6.64,6.66,9.2,2.84,2.56,6.13,4.52,9.87,5.88,3.74,1.36,7.75,1.93,12.04,1.7,5.4-.28,10.3-1.76,14.73-4.43,4.42-2.67,8.01-6.11,10.77-10.32l54.78-2.89Z"/>
        <path class="cls-2" d="M679.21,173.85l-62.04,3.28-6.28-24.25-38.39,2.03-5.97,24.89-58.51,3.09,50.09-156.83,70.34-3.72,50.75,151.5ZM581.34,114.02l20.54-1.09-10.25-37.44-10.29,38.53Z"/>
        <path class="cls-2" d="M689.47,19.13l53.53-2.83.23,105.01,43.57-2.3.11,49.15-97.11,5.13-.33-154.16Z"/>
        <path class="cls-2" d="M261.33,394.78l-62.04,3.28-6.28-24.25-38.39,2.03-5.96,24.89-58.51,3.09,50.09-156.83,70.34-3.72,50.75,151.5ZM163.46,334.95l20.54-1.09-10.25-37.44-10.29,38.53Z"/>
        <path class="cls-2" d="M254.98,240.93l50.22-2.65.2,91.6c.01,4.74,1.72,8.58,5.11,11.51,3.4,2.94,7.45,4.28,12.15,4.03,4.84-.26,8.95-2.03,12.34-5.32,3.38-3.29,5.07-7.31,5.06-12.05l-.2-91.6,50.01-2.64.2,91.6c.02,9.21-1.72,17.9-5.23,26.08-3.51,8.18-8.3,15.37-14.38,21.58-6.08,6.21-13.23,11.26-21.44,15.15-8.22,3.89-16.97,6.08-26.24,6.57-9.41.5-18.2-.77-26.36-3.79-8.17-3.02-15.3-7.32-21.4-12.89-6.1-5.57-10.92-12.25-14.47-20.06-3.54-7.8-5.33-16.31-5.35-25.52l-.2-91.6Z"/>
        <path class="cls-2" d="M402.72,233.13l81.96-4.33c7.61-.4,14.73.61,21.38,3.03,6.65,2.43,12.43,5.91,17.35,10.46,4.92,4.55,8.8,10,11.66,16.35,2.85,6.35,4.28,13.25,4.3,20.7.02,9.48-2.28,18.27-6.9,26.37-4.62,8.1-10.73,14.72-18.32,19.86l26.06,54.49-65.36,3.45-18.37-48.8.11,49.76-53.53,2.83-.34-154.16ZM475.29,299.99c3.46-.18,6.46-1.56,9.02-4.13,2.55-2.57,3.83-5.62,3.82-9.14,0-3.38-1.3-6.23-3.86-8.53-2.57-2.3-5.58-3.36-9.03-3.18l-18.88,1,.05,24.98,18.88-1Z"/>
        <path class="cls-2" d="M719.07,370.59l-62.04,3.28-6.28-24.25-38.39,2.03-5.97,24.89-58.51,3.09,50.09-156.83,70.34-3.72,50.76,151.5ZM621.2,310.76l20.54-1.09-10.25-37.44-10.29,38.53Z"/>
      </g>
    </g>
  </g>
</svg>